# xmcd
#
# Track frame offsets: 
#        160
#        19961
#        36249
#        52225
#        71725
#        86302
#        104115
#        118848
#        139751
#        154055
#        172191
#        191755
#
# Disc length: 2831 seconds
#
# Revision: 0
# Processed by: cddbd v1.5.2PL0 Copyright (c) Steve Scherf et al.
# Submitted via: ExactAudioCopy v1.1
#
DISCID=b60b0d0c
DTITLE=Devin The Dude - Landing Gear
DYEAR=2008
DGENRE=Hip-Hop
TTITLE0=In My Draws
TTITLE1=I Can't Make It Home
TTITLE2=Thinkin' Boutchu
TTITLE3=Let Me Know It's Real
TTITLE4=El Grande Nalgas
TTITLE5=Me, You
TTITLE6=Highway
TTITLE7=I Don't Chase 'Em
TTITLE8=Yo Mind
TTITLE9=I Need A Song
TTITLE10=Your Kinda Love
TTITLE11=Stray
EXTD=
EXTT0=
EXTT1=
EXTT2=
EXTT3=
EXTT4=
EXTT5=
EXTT6=
EXTT7=
EXTT8=
EXTT9=
EXTT10=
EXTT11=
PLAYORDER=
